# xmcd
#
# Track frame offsets:
#   182
#   18557
#   41145
#   56775
#   75752
#   91942
#   106645
#   122070
#   147570
#   166160
#
# Disc length: 2446 seconds
#
# Revision: 0
# Processed by: cddbd v1.5.2PL0 Copyright (c) Steve Scherf et al.
# Submitted via: uFREEDB 1.6.0
#
DISCID=78098c0a
DTITLE=Hughes, Barry - Barry In Texas
DYEAR=1991
DGENRE=Country
TTITLE0=Sioux City Sue/Red River Valley/My Darling Clement
TTITLE1=Tom Dooley/Oh Bury Me Not On The Lone Prairie/Cool
TTITLE2=Down In The Valley/When It's Springtime In The Roc
TTITLE3=I'm An Old Cowhand/There's A Tear In My Beer/GiveM
TTITLE4=Don't Fence Me In/Take Me Back To My Boots And Sad
TTITLE5=Deep In The Heart Of Texas/You Are  My Sunshine/Pi
TTITLE6=Have I Told You Lately That I Love You/Brush Those
TTITLE7=Mockin'Bird Hill/On Top Of Old Smoky/The Cowboy's 
TTITLE8=Jambalaya/Down By The Riverside/Cotton Fields/This
TTITLE9=Jealous Heart/Release Me/Careless Love
EXTD=
EXTT0=
EXTT1=
EXTT2=
EXTT3=
EXTT4=
EXTT5=
EXTT6=
EXTT7=
EXTT8=
EXTT9=
PLAYORDER=
